<svg
  width="220"
  height="220"
  viewBox="0 0 220 220"
  xmlns="http://www.w3.org/2000/svg"
>
  <circle cx="110" cy="110" r="105" fill="#0f172a"/>

  <path
    d="M110 45
       C85 45 65 65 65 90
       C65 120 110 170 110 170
       C110 170 155 120 155 90
       C155 65 135 45 110 45Z"
    fill="#38bdf8"
  />

  <circle cx="110" cy="90" r="20" fill="#0f172a"/>

  <path
    d="M80 115
       H135
       L128 145
       H90
       Z"
    fill="#0f172a"
  />

  <line x1="92" y1="118" x2="92" y2="142" stroke="rgba(255,255,255,0.6)" stroke-width="2"/>
  <line x1="102" y1="118" x2="102" y2="142" stroke="rgba(255,255,255,0.6)" stroke-width="2"/>
  <line x1="112" y1="118" x2="112" y2="142" stroke="rgba(255,255,255,0.6)" stroke-width="2"/>
  <line x1="122" y1="118" x2="122" y2="142" stroke="rgba(255,255,255,0.6)" stroke-width="2"/>

  <line x1="88" y1="124" x2="130" y2="124" stroke="rgba(255,255,255,0.6)" stroke-width="2"/>
  <line x1="90" y1="132" x2="128" y2="132" stroke="rgba(255,255,255,0.6)" stroke-width="2"/>
  <line x1="92" y1="140" x2="126" y2="140" stroke="rgba(255,255,255,0.6)" stroke-width="2"/>

  <line
    x1="75"
    y1="110"
    x2="90"
    y2="115"
    stroke="#0f172a"
    stroke-width="4"
    stroke-linecap="round"
  />

  <circle cx="98" cy="150" r="7" fill="#0f172a"/>
  <circle cx="122" cy="150" r="7" fill="#0f172a"/>

  <text
    x="110"
    y="205"
    text-anchor="middle"
    fill="#e5e7eb"
    font-size="20"
    font-family="Arial, Helvetica, sans-serif"
    font-weight="bold"
    letter-spacing="2"
  >
    AGORA
  </text>
</svg>
